<svg width="192" height="192" viewBox="0.44903564453125 0.36948394775390625 191.1019287109375 191.2610321044922" fill="none" xmlns="http://www.w3.org/2000/svg">
<path d="M183.027 66.9353C180.302 66.9353 178.015 66.0118 176.168 64.1647C174.321 62.3175 173.08 60.0343 172.445 57.315C171.643 52.8255 170.2 48.6566 168.116 44.8085C166.031 40.9603 163.466 37.4329 160.42 34.2261L147.192 56.5934C145.588 59.1589 143.866 61.9648 142.025 65.0112C140.185 68.0577 138.219 70.7033 136.128 72.948C133.883 75.3531 131.077 76.5557 127.71 76.5557C124.343 76.5557 121.457 75.4333 119.052 73.1885C116.647 70.9438 115.444 68.1379 115.444 64.7707C115.444 61.4036 116.647 58.5175 119.052 56.1124C121.297 53.8677 123.984 51.8634 127.114 50.0997C130.244 48.336 133.088 46.6524 135.647 45.049L158.014 31.821C154.647 28.6142 150.879 25.9686 146.711 23.8842C142.542 21.7998 138.052 20.3567 133.242 19.555C130.837 19.2344 128.913 18.0703 127.47 16.0629C126.027 14.0554 125.305 11.7722 125.305 9.21316C125.305 6.48739 126.187 4.20095 127.951 2.35384C129.715 0.506729 131.799 -0.253279 134.204 0.0738129C148.955 1.99789 161.622 8.13247 172.204 18.4776C182.787 28.8227 189.281 41.3644 191.686 56.1028C192.167 58.8286 191.525 61.3138 189.762 63.5586C187.998 65.8033 185.753 66.9289 183.027 66.9353ZM97.1656 192C83.6971 192 71.072 189.435 59.2903 184.304C47.5085 179.173 37.2468 172.237 28.5051 163.495C19.7634 154.76 12.8271 144.498 7.69629 132.71C2.56543 120.922 0 108.296 0 94.8344C0 74.9523 5.49323 56.9141 16.4797 40.7198C27.4661 24.5256 42.1757 12.6605 60.6083 5.1245C62.853 4.32281 65.1779 4.04061 67.583 4.27791C69.9881 4.51521 71.9924 5.27843 73.5958 6.56756C74.8785 7.68993 75.8822 9.25484 76.6069 11.2623C77.3317 13.2697 77.6908 15.8737 77.6844 19.074C78.0051 31.7408 80.5705 43.808 85.3807 55.2754C90.1909 66.7429 97.0855 76.963 106.064 85.9355C115.043 94.9145 125.305 101.809 136.85 106.619C148.394 111.429 160.5 113.995 173.166 114.316C176.534 114.316 179.099 114.598 180.863 115.162C182.627 115.727 184.07 116.647 185.192 117.923C186.475 119.527 187.318 121.611 187.722 124.176C188.126 126.742 187.924 129.067 187.116 131.151C179.74 149.59 167.875 164.341 151.521 175.405C135.166 186.468 117.048 192 97.1656 192ZM97.1656 172.759C111.275 172.759 124.343 169.232 136.369 162.177C148.394 155.122 157.854 145.421 164.749 133.075C150.959 131.793 137.892 128.304 125.546 122.608C113.2 116.913 102.136 109.178 92.3555 99.404C82.5748 89.6233 74.7983 78.5599 69.0261 66.2138C63.2539 53.8677 59.8066 40.8 58.6842 27.0108C46.3381 33.9054 36.6792 43.4071 29.7077 55.516C22.7361 67.6248 19.2471 80.7309 19.2407 94.8344C19.2407 116.48 26.8184 134.881 41.9736 150.036C57.1289 165.191 75.5262 172.766 97.1656 172.759Z" fill="#FCFDFF"/>
</svg>
