<svg width="60" height="59" viewBox="0 0 60 59" fill="none" xmlns="http://www.w3.org/2000/svg">
<path d="M18 59C13.2261 59 8.64773 56.8061 5.27208 52.9009C1.89642 48.9958 0 43.6992 0 38.1765C0 26.6749 9 6.94118 18 6.94118C27 6.94118 36 26.6749 36 38.1765C36 43.6992 34.1036 48.9958 30.7279 52.9009C27.3523 56.8061 22.7739 59 18 59ZM37.836 51.5001C40.5328 47.762 42.0069 43.0454 42 38.1765C42 29.4375 36.804 15.9474 30.36 9.971C33.639 4.25841 37.821 0 42 0C51 0 60 19.7338 60 31.2353C60.0008 34.38 59.3859 37.4842 58.2015 40.3147C57.017 43.1452 55.2938 45.6286 53.1611 47.5786C51.0284 49.5285 48.5417 50.8943 45.8875 51.5735C43.2333 52.2526 40.4806 52.2275 37.836 51.5001Z" fill="#8385B7"/>
</svg>
