<svg width="60" height="59" viewBox="0 0 60 59" fill="none" xmlns="http://www.w3.org/2000/svg">
<path d="M0 52.4444H53.3333V59H0V52.4444ZM53.3333 16.3889V6.55556H46.6667V16.3889H53.3333ZM53.3333 0C55.3333 0 56.6667 0.655555 58 1.96667C59.3333 3.27778 60 4.91667 60 6.55556V16.3889C60 18.3556 59.3333 19.6667 58 20.9778C56.6667 22.2889 55.3333 22.9444 53.3333 22.9444H46.6667V32.7778C46.6667 36.3833 45.3333 39.3333 42.6667 41.9556C40 44.5778 37 45.8889 33.3333 45.8889H13.3333C9.66667 45.8889 6.66667 44.5778 4 41.9556C1.33333 39.3333 0 36.3833 0 32.7778V0H16.6667V7.86667L10.6667 12.4556C10.3333 12.7833 10 13.4389 10 13.7667V27.8611C10 28.8444 10.6667 29.5 11.6667 29.5H25C26 29.5 26.6667 28.8444 26.6667 27.8611V13.7667C26.6667 13.1111 26.3333 12.7833 26 12.4556L20 7.86667V0H53.3333Z" fill="#8385B7"/>
</svg>
