<svg width="19" height="19" viewBox="0.3333740234375 0.3333740234375 18.333251953125 18.333251953125" fill="none" xmlns="http://www.w3.org/2000/svg">
<path fill-rule="evenodd" clip-rule="evenodd" d="M19.0001 9.50004C19.0001 12.0196 17.9992 14.436 16.2176 16.2176C14.436 17.9992 12.0196 19.0001 9.50004 19.0001C6.98047 19.0001 4.5641 17.9992 2.7825 16.2176C1.00089 14.436 0 12.0196 0 9.50004C0 6.98047 1.00089 4.5641 2.7825 2.7825C4.5641 1.00089 6.98047 0 9.50004 0C12.0196 0 14.436 1.00089 16.2176 2.7825C17.9992 4.5641 19.0001 6.98047 19.0001 9.50004ZM14.2501 9.50004C14.2501 10.7598 13.7496 11.968 12.8588 12.8588C11.968 13.7496 10.7598 14.2501 9.50004 14.2501C8.24026 14.2501 7.03207 13.7496 6.14127 12.8588C5.25047 11.968 4.75002 10.7598 4.75002 9.50004C4.75002 8.24026 5.25047 7.03207 6.14127 6.14127C7.03207 5.25047 8.24026 4.75002 9.50004 4.75002C10.7598 4.75002 11.968 5.25047 12.8588 6.14127C13.7496 7.03207 14.2501 8.24026 14.2501 9.50004Z" fill="#FCFDFF"/>
</svg>
