<svg width="60" height="59" viewBox="0 0 60 59" fill="none" xmlns="http://www.w3.org/2000/svg">
<path d="M54.5455 53.6364V42.9091C54.5455 41.4866 53.9708 40.1223 52.9479 39.1164C51.9249 38.1106 50.5375 37.5455 49.0909 37.5455H46.3636V29.5C46.3636 28.0775 45.789 26.7132 44.766 25.7073C43.7431 24.7015 42.3557 24.1364 40.9091 24.1364H32.7273V18.7727H27.2727V24.1364H19.0909C16.0636 24.1364 13.6364 26.5232 13.6364 29.5V37.5455H10.9091C7.88182 37.5455 5.45455 39.9323 5.45455 42.9091V53.6364H0V59H60V53.6364M30 16.0909C31.4466 16.0909 32.834 15.5258 33.8569 14.5199C34.8799 13.5141 35.4545 12.1498 35.4545 10.7273C35.4545 9.70818 35.1818 8.76955 34.6636 7.965L30 0L25.3091 7.965C24.8182 8.76955 24.5455 9.70818 24.5455 10.7273C24.5455 12.1498 25.1201 13.5141 26.1431 14.5199C27.166 15.5258 28.5534 16.0909 30 16.0909Z" fill="#8385B7"/>
</svg>
