<svg width="60" height="59" viewBox="0 0 60 59" fill="none" xmlns="http://www.w3.org/2000/svg">
<path d="M3.33333 24.2941H56.6667C57.5507 24.2941 58.3986 24.6598 59.0237 25.3106C59.6488 25.9615 60 26.8442 60 27.7647V29.5C60 34.7059 51.61 48.8416 46.6667 52.0588V55.5294C46.6667 56.4499 46.3155 57.3326 45.6904 57.9835C45.0652 58.6344 44.2174 59 43.3333 59H16.6667C15.7826 59 14.9348 58.6344 14.3096 57.9835C13.6845 57.3326 13.3333 56.4499 13.3333 55.5294V52.0588C7.71 48.4008 0 34.7059 0 29.5V27.7647C0 26.8442 0.351189 25.9615 0.976311 25.3106C1.60143 24.6598 2.44928 24.2941 3.33333 24.2941ZM30 0C28.945 0.788415 28.0902 1.83237 27.5095 3.04171C26.9287 4.25104 26.6395 5.5894 26.6667 6.94118C26.6395 8.29296 26.9287 9.63131 27.5095 10.8406C28.0902 12.05 28.945 13.0939 30 13.8824M43.3333 0C42.2784 0.788415 41.4236 1.83237 40.8428 3.04171C40.2621 4.25104 39.9728 5.5894 40 6.94118C39.9728 8.29296 40.2621 9.63131 40.8428 10.8406C41.4236 12.05 42.2784 13.0939 43.3333 13.8824M16.6667 0C15.6117 0.788415 14.7569 1.83237 14.1762 3.04171C13.5954 4.25104 13.3061 5.5894 13.3333 6.94118C13.3061 8.29296 13.5954 9.63131 14.1762 10.8406C14.7569 12.05 15.6117 13.0939 16.6667 13.8824" fill="#8385B7"/>
<path d="M30 0C28.945 0.788415 28.0902 1.83237 27.5095 3.04171C26.9287 4.25104 26.6395 5.5894 26.6667 6.94118C26.6395 8.29296 26.9287 9.63131 27.5095 10.8406C28.0902 12.05 28.945 13.0939 30 13.8824M43.3333 0C42.2784 0.788415 41.4236 1.83237 40.8428 3.04171C40.2621 4.25104 39.9728 5.5894 40 6.94118C39.9728 8.29296 40.2621 9.63131 40.8428 10.8406C41.4236 12.05 42.2784 13.0939 43.3333 13.8824M16.6667 0C15.6117 0.788415 14.7569 1.83237 14.1762 3.04171C13.5954 4.25104 13.3061 5.5894 13.3333 6.94118C13.3061 8.29296 13.5954 9.63131 14.1762 10.8406C14.7569 12.05 15.6117 13.0939 16.6667 13.8824M3.33333 24.2941H56.6667C57.5507 24.2941 58.3986 24.6598 59.0237 25.3106C59.6488 25.9615 60 26.8442 60 27.7647V29.5C60 34.7059 51.61 48.8416 46.6667 52.0588V55.5294C46.6667 56.4499 46.3155 57.3326 45.6904 57.9835C45.0652 58.6344 44.2174 59 43.3333 59H16.6667C15.7826 59 14.9348 58.6344 14.3096 57.9835C13.6845 57.3326 13.3333 56.4499 13.3333 55.5294V52.0588C7.71 48.4008 0 34.7059 0 29.5V27.7647C0 26.8442 0.351189 25.9615 0.976311 25.3106C1.60143 24.6598 2.44928 24.2941 3.33333 24.2941Z" stroke="#1E1E1E" stroke-opacity="0.7" stroke-width="2" stroke-linecap="round" stroke-linejoin="round"/>
</svg>
