<svg width="51" height="51" viewBox="0.2916717529296875 0.2916259765625 50.416656494140625 50.416748046875" fill="none" xmlns="http://www.w3.org/2000/svg">
<path fill-rule="evenodd" clip-rule="evenodd" d="M25.5 0C11.417 0 0 11.417 0 25.5C0 39.5829 11.417 50.9999 25.5 50.9999C39.5829 50.9999 50.9999 39.5829 50.9999 25.5C50.9999 11.417 39.5829 0 25.5 0ZM4.63636 25.5C4.63636 30.345 6.28922 34.8051 9.05944 38.3473C11.0049 35.7924 13.5147 33.722 16.3928 32.2976C19.2709 30.8732 22.4394 30.1335 25.6506 30.1363C28.8203 30.1333 31.9489 30.8538 34.798 32.243C37.6471 33.6322 40.1415 35.6534 42.0912 38.1526C44.0997 35.5182 45.4521 32.4434 46.0365 29.1826C46.6208 25.9218 46.4202 22.5687 45.4513 19.4008C44.4825 16.2329 42.7732 13.3412 40.4649 10.9651C38.1566 8.58891 35.3157 6.79657 32.1772 5.73635C29.0387 4.67613 25.6928 4.37851 22.4165 4.86811C19.1401 5.35771 16.0274 6.62047 13.3359 8.55188C10.6445 10.4833 8.45164 13.0279 6.93884 15.975C5.42604 18.9222 4.63677 22.1872 4.63636 25.5ZM25.5 46.3636C20.7105 46.3708 16.0656 44.7231 12.3513 41.6994C13.8463 39.5591 15.8363 37.8116 18.1518 36.6056C20.4673 35.3996 23.0399 34.7708 25.6506 34.7727C28.2288 34.7706 30.7703 35.3837 33.064 36.561C35.3577 37.7383 37.3374 39.4458 38.8388 41.5418C35.0956 44.6637 30.3741 46.3704 25.5 46.3636Z" fill="white"/>
</svg>
