<svg width="19" height="19" viewBox="0.333343505859375 0.33331298828125 18.33331298828125 18.3333740234375" fill="none" xmlns="http://www.w3.org/2000/svg">
<path fill-rule="evenodd" clip-rule="evenodd" d="M19 9.49998C19 12.0195 17.9991 14.4359 16.2175 16.2175C14.4359 17.9991 12.0195 19 9.49998 19C6.98043 19 4.56407 17.9991 2.78248 16.2175C1.00089 14.4359 0 12.0195 0 9.49998C0 6.98043 1.00089 4.56407 2.78248 2.78248C4.56407 1.00089 6.98043 0 9.49998 0C12.0195 0 14.4359 1.00089 16.2175 2.78248C17.9991 4.56407 19 6.98043 19 9.49998ZM14.25 9.49998C14.25 10.7598 13.7495 11.9679 12.8587 12.8587C11.9679 13.7495 10.7598 14.25 9.49998 14.25C8.2402 14.25 7.03203 13.7495 6.14123 12.8587C5.25043 11.9679 4.74999 10.7598 4.74999 9.49998C4.74999 8.2402 5.25043 7.03202 6.14123 6.14123C7.03203 5.25043 8.2402 4.74999 9.49998 4.74999C10.7598 4.74999 11.9679 5.25043 12.8587 6.14123C13.7495 7.03202 14.25 8.2402 14.25 9.49998Z" fill="white"/>
</svg>
