<svg width="60" height="59" viewBox="0 0 60 59" fill="none" xmlns="http://www.w3.org/2000/svg">
<path d="M57 21.7835C56.9451 19.8846 56.4197 18.0321 55.4743 16.403C54.5288 14.774 53.1949 13.4231 51.6 12.4794C51.2176 9.77787 49.9061 7.3094 47.9059 5.52648C45.9058 3.74355 43.351 2.76565 40.71 2.77205C39.6972 2.77025 38.6886 2.9058 37.71 3.17523C35.6451 1.13718 32.8999 0 30.045 0C27.1901 0 24.4449 1.13718 22.38 3.17523C21.4014 2.9058 20.3928 2.77025 19.38 2.77205C16.7287 2.75066 14.1594 3.72178 12.1467 5.50606C10.1341 7.29034 8.81386 9.76725 8.43 12.4794C6.82955 13.4192 5.4896 14.7685 4.53874 16.3978C3.58788 18.027 3.05802 19.8816 3 21.7835C2.20435 21.7835 1.44129 22.1102 0.87868 22.6919C0.31607 23.2735 0 24.0623 0 24.8849C0.000133777 30.3288 1.38638 35.6768 4.01943 40.3913C6.65247 45.1058 10.4395 49.0208 15 51.7428V55.8986C15 56.7212 15.3161 57.51 15.8787 58.0916C16.4413 58.6732 17.2044 59 18 59H42C42.7957 59 43.5587 58.6732 44.1213 58.0916C44.6839 57.51 45 56.7212 45 55.8986V51.7428C49.5605 49.0208 53.3475 45.1058 55.9806 40.3913C58.6136 35.6768 59.9999 30.3288 60 24.8849C60 24.0623 59.6839 23.2735 59.1213 22.6919C58.5587 22.1102 57.7957 21.7835 57 21.7835ZM9 21.7835C9.07621 20.8036 9.43395 19.8697 10.0273 19.1016C10.6206 18.3334 11.4225 17.7662 12.33 17.4726L14.82 16.6662L14.34 14.03C14.3478 13.3621 14.4829 12.7023 14.7374 12.0883C14.9919 11.4743 15.3609 10.9181 15.8234 10.4516C16.2858 9.98502 16.8326 9.61721 17.4326 9.36915C18.0325 9.12108 18.6739 8.99762 19.32 9.00582C20.1864 9.00069 21.041 9.21357 21.81 9.62609L24.24 11.0217L25.74 8.63365C26.2091 7.91084 26.8431 7.3185 27.586 6.90892C28.329 6.49933 29.158 6.28508 30 6.28508C30.842 6.28508 31.671 6.49933 32.414 6.90892C33.1569 7.3185 33.7909 7.91084 34.26 8.63365L35.76 11.0217L38.19 9.62609C38.959 9.21357 39.8136 9.00069 40.68 9.00582C41.9776 8.98894 43.2297 9.49952 44.1667 10.4276C45.1038 11.3557 45.6508 12.6271 45.69 13.968L45.21 16.6042L47.67 17.4726C48.5775 17.7662 49.3794 18.3334 49.9727 19.1016C50.5661 19.8697 50.9238 20.8036 51 21.7835H9Z" fill="#8385B7"/>
</svg>
