<svg width="51" height="51" viewBox="0.4952392578125 0.48828125 50.009521484375 50.0234375" fill="none" xmlns="http://www.w3.org/2000/svg">
<path d="M46.2973 27.3616C47.9924 25.6689 49.2852 23.6168 50.0802 21.357C50.8751 19.0973 51.1519 16.6878 50.8901 14.3066C50.6282 11.9255 49.8344 9.63367 48.5674 7.60069C47.3004 5.56772 45.5925 3.84559 43.5701 2.56169C38.447 -0.828217 31.5907 -0.853705 26.4167 2.48523C21.9308 5.36538 19.4584 9.85128 19.0251 14.4901C18.6938 17.8545 17.4194 20.9896 15.0745 23.3345L14.998 23.4109C12.0414 26.3675 12.0414 30.8789 14.8196 33.6316L17.3429 36.1549C18.6783 37.4894 20.4889 38.2391 22.3768 38.2391C24.2647 38.2391 26.0753 37.4894 27.4107 36.1549C29.883 33.6826 33.1455 32.3317 36.6883 31.9494C40.1802 31.5671 43.5956 30.0378 46.2973 27.3616ZM10.8689 45.5346C11.5571 46.9619 11.3277 48.6951 10.1298 49.8675C9.61097 50.3942 8.94971 50.7579 8.22713 50.9142C7.50455 51.0705 6.75207 51.0125 6.062 50.7473C5.37192 50.482 4.77425 50.0212 4.34231 49.4212C3.91036 48.8212 3.66292 48.1083 3.63034 47.3697C2.89177 47.3371 2.17878 47.0897 1.57881 46.6577C0.978836 46.2258 0.517984 45.6281 0.252778 44.938C-0.0124284 44.248 -0.0704552 43.4955 0.085815 42.7729C0.242085 42.0503 0.605857 41.3891 1.13251 40.8702C2.30496 39.6978 4.06363 39.4429 5.46548 40.1311L11.7865 33.9375C12.1433 34.4218 12.5512 34.9825 13.0099 35.4413L15.5333 37.9646C16.0685 38.4744 16.5783 38.9077 17.241 39.29L10.8689 45.5346Z" fill="#8385B7"/>
</svg>
