<svg width="60" height="59" viewBox="0 0 60 59" fill="none" xmlns="http://www.w3.org/2000/svg">
<path d="M25.494 23.6829C26.7437 23.6829 27.8064 23.2532 28.6822 22.3938C29.558 21.5344 29.9949 20.4926 29.9929 19.2682C29.9929 18.042 29.555 16.9991 28.6792 16.1397C27.8034 15.2804 26.7417 14.8516 25.494 14.8536C24.2443 14.8536 23.1815 15.2833 22.3057 16.1427C21.4299 17.0021 20.993 18.0439 20.995 19.2682C20.995 20.4945 21.4329 21.5374 22.3087 22.3968C23.1845 23.2561 24.2463 23.6848 25.494 23.6829ZM19.4954 38.3983C20.7451 38.3983 21.8078 37.9687 22.6836 37.1093C23.5594 36.2499 23.9963 35.208 23.9943 33.9837C23.9943 32.7574 23.5564 31.7146 22.6806 30.8552C21.8048 29.9958 20.7431 29.5671 19.4954 29.5691C18.2457 29.5691 17.1829 29.9988 16.3071 30.8581C15.4313 31.7175 14.9945 32.7594 14.9965 33.9837C14.9965 35.21 15.4344 36.2528 16.3101 37.1122C17.1859 37.9716 18.2477 38.4003 19.4954 38.3983ZM38.9908 41.3414C39.8406 41.3414 40.5534 41.0589 41.1293 40.4938C41.7051 39.9288 41.9921 39.2303 41.9901 38.3983C41.9901 37.5645 41.7021 36.865 41.1263 36.2999C40.5504 35.7348 39.8386 35.4533 38.9908 35.4553C38.141 35.4553 37.4281 35.7378 36.8523 36.3029C36.2764 36.8679 35.9895 37.5664 35.9915 38.3983C35.9915 39.2322 36.2794 39.9317 36.8553 40.4968C37.4311 41.0618 38.143 41.3434 38.9908 41.3414ZM29.9929 59C25.8439 59 21.9448 58.2269 18.2957 56.6808C14.6465 55.1347 11.4723 53.0383 8.77293 50.3914C6.07356 47.7427 3.93707 44.6279 2.36344 41.0471C0.789814 37.4664 0.00199953 33.6404 0 29.5691C0 25.4487 0.899787 21.4265 2.69936 17.5024C4.49894 13.5783 7.01134 10.1937 10.2366 7.34872C13.4578 4.50373 17.2799 2.41904 21.7029 1.09465C26.1258 -0.229741 30.9627 -0.35237 36.2134 0.726764C35.7635 2.93408 35.9135 5.007 36.6633 6.94552C37.4132 8.88404 38.5379 10.5145 40.0375 11.8369C41.5372 13.1613 43.3118 14.0688 45.3613 14.5593C47.4108 15.0498 49.5603 14.9272 51.8097 14.1914C50.2601 17.576 50.535 20.47 52.6346 22.8735C54.7341 25.2771 57.1345 26.5279 59.8359 26.626C60.2857 30.9916 59.8109 35.1364 58.4112 39.0605C57.0115 42.9847 54.949 46.4183 52.2237 49.3614C49.5003 52.3045 46.2261 54.6472 42.401 56.3895C38.5759 58.1318 34.4399 59.002 29.9929 59Z" fill="#8385B7"/>
</svg>
