<svg width="138" height="138" viewBox="0.25 0.25 137.5 137.5" fill="none" xmlns="http://www.w3.org/2000/svg">
<path fill-rule="evenodd" clip-rule="evenodd" d="M69 0C30.8932 0 0 30.8932 0 69C0 107.107 30.8932 138 69 138C107.107 138 138 107.107 138 69C138 30.8932 107.107 0 69 0ZM12.5455 69C12.5455 82.11 17.0179 94.1787 24.5138 103.763C29.7781 96.8503 36.5694 91.2478 44.3572 87.3936C52.145 83.5394 60.7184 81.5379 69.4077 81.5455C77.9846 81.5373 86.4502 83.487 94.1595 87.246C101.869 91.005 108.618 96.4741 113.894 103.237C119.329 96.1082 122.988 87.7882 124.569 78.9648C126.151 70.1414 125.608 61.0684 122.986 52.4964C120.365 43.9244 115.739 36.0998 109.493 29.6702C103.248 23.2406 95.5603 18.3908 87.0679 15.5219C78.5754 12.6531 69.5219 11.8477 60.6564 13.1726C51.7909 14.4974 43.3683 17.9142 36.0855 23.1404C28.8028 28.3666 22.8692 35.2519 18.7757 43.2266C14.6822 51.2013 12.5466 60.0361 12.5455 69ZM69 125.455C56.0402 125.474 43.4717 121.016 33.4211 112.834C37.4666 107.042 42.8511 102.314 49.1167 99.0507C55.3822 95.7874 62.3433 94.0859 69.4077 94.0909C76.384 94.0853 83.261 95.7442 89.4674 98.9298C95.6739 102.115 101.031 106.736 105.093 112.407C94.9647 120.855 82.1889 125.473 69 125.455Z" fill="#8385B7"/>
</svg>
