<svg width="51" height="51" viewBox="0.291656494140625 0.2916717529296875 50.41668701171875 50.416656494140625" fill="none" xmlns="http://www.w3.org/2000/svg">
<path fill-rule="evenodd" clip-rule="evenodd" d="M25.5 0C11.417 0 0 11.417 0 25.5C0 39.5829 11.417 51 25.5 51C39.5829 51 51 39.5829 51 25.5C51 11.417 39.5829 0 25.5 0ZM4.63636 25.5C4.63636 30.345 6.28922 34.8052 9.05945 38.3474C11.0049 35.7925 13.5148 33.722 16.3929 32.2976C19.271 30.8733 22.4394 30.1336 25.6507 30.1364C28.8204 30.1333 31.949 30.8539 34.7981 32.2431C37.6471 33.6323 40.1415 35.6534 42.0912 38.1526C44.0998 35.5182 45.4522 32.4434 46.0365 29.1826C46.6208 25.9218 46.4203 22.5687 45.4514 19.4008C44.4825 16.2329 42.7733 13.3412 40.465 10.9651C38.1567 8.58892 35.3157 6.79658 32.1772 5.73636C29.0387 4.67614 25.6929 4.37851 22.4165 4.86812C19.1401 5.35772 16.0274 6.62047 13.336 8.55189C10.6445 10.4833 8.45165 13.0279 6.93885 15.975C5.42604 18.9222 4.63678 22.1872 4.63636 25.5ZM25.5 46.3636C20.7105 46.3708 16.0656 44.7231 12.3513 41.6994C13.8463 39.5591 15.8363 37.8117 18.1518 36.6057C20.4673 35.3997 23.0399 34.7709 25.6507 34.7727C28.2289 34.7706 30.7703 35.3837 33.064 36.561C35.3577 37.7383 37.3375 39.4458 38.8388 41.5418C35.0956 44.6637 30.3742 46.3705 25.5 46.3636Z" fill="white"/>
</svg>
