<svg width="19" height="19" viewBox="0.3333740234375 0.3333282470703125 18.333251953125 18.333343505859375" fill="none" xmlns="http://www.w3.org/2000/svg">
<path fill-rule="evenodd" clip-rule="evenodd" d="M19 9.49999C19 12.0195 17.9991 14.4359 16.2175 16.2175C14.4359 17.9991 12.0196 19 9.5 19C6.98044 19 4.56408 17.9991 2.78248 16.2175C1.00089 14.4359 0 12.0195 0 9.49999C0 6.98044 1.00089 4.56408 2.78248 2.78248C4.56408 1.00089 6.98044 0 9.5 0C12.0196 0 14.4359 1.00089 16.2175 2.78248C17.9991 4.56408 19 6.98044 19 9.49999ZM14.25 9.49999C14.25 10.7598 13.7495 11.968 12.8588 12.8587C11.968 13.7495 10.7598 14.25 9.5 14.25C8.24022 14.25 7.03204 13.7495 6.14124 12.8587C5.25044 11.968 4.75 10.7598 4.75 9.49999C4.75 8.24022 5.25044 7.03204 6.14124 6.14124C7.03204 5.25044 8.24022 4.75 9.5 4.75C10.7598 4.75 11.968 5.25044 12.8588 6.14124C13.7495 7.03204 14.25 8.24022 14.25 9.49999Z" fill="#FCFDFF"/>
</svg>
