<svg width="19" height="19" viewBox="0.333343505859375 0.3333740234375 18.33331298828125 18.333251953125" fill="none" xmlns="http://www.w3.org/2000/svg">
<path fill-rule="evenodd" clip-rule="evenodd" d="M19 9.50001C19 12.0196 17.9991 14.4359 16.2175 16.2175C14.4359 17.9991 12.0196 19 9.50001 19C6.98045 19 4.56409 17.9991 2.78249 16.2175C1.00089 14.4359 0 12.0196 0 9.50001C0 6.98045 1.00089 4.56409 2.78249 2.78249C4.56409 1.00089 6.98045 0 9.50001 0C12.0196 0 14.4359 1.00089 16.2175 2.78249C17.9991 4.56409 19 6.98045 19 9.50001ZM14.25 9.50001C14.25 10.7598 13.7496 11.968 12.8588 12.8588C11.968 13.7496 10.7598 14.25 9.50001 14.25C8.24023 14.25 7.03205 13.7496 6.14125 12.8588C5.25045 11.968 4.75001 10.7598 4.75001 9.50001C4.75001 8.24023 5.25045 7.03205 6.14125 6.14125C7.03205 5.25045 8.24023 4.75 9.50001 4.75C10.7598 4.75 11.968 5.25045 12.8588 6.14125C13.7496 7.03205 14.25 8.24023 14.25 9.50001Z" fill="white"/>
</svg>
