<svg width="51" height="51" viewBox="0.29168701171875 0.29168701171875 50.4166259765625 50.4166259765625" fill="none" xmlns="http://www.w3.org/2000/svg">
<path fill-rule="evenodd" clip-rule="evenodd" d="M25.5 0C11.4171 0 0 11.4171 0 25.5C0 39.583 11.4171 51 25.5 51C39.583 51 51 39.583 51 25.5C51 11.4171 39.583 0 25.5 0ZM4.63637 25.5C4.63637 30.345 6.28923 34.8052 9.05946 38.3474C11.005 35.7925 13.5148 33.722 16.3929 32.2977C19.271 30.8733 22.4394 30.1336 25.6507 30.1364C28.8204 30.1334 31.949 30.8539 34.7981 32.2431C37.6472 33.6323 40.1416 35.6535 42.0913 38.1527C44.0998 35.5183 45.4522 32.4435 46.0366 29.1827C46.6209 25.9218 46.4203 22.5688 45.4515 19.4008C44.4826 16.2329 42.7733 13.3413 40.465 10.9651C38.1567 8.58893 35.3158 6.79659 32.1773 5.73637C29.0388 4.67614 25.6929 4.37852 22.4165 4.86812C19.1401 5.35773 16.0274 6.62048 13.336 8.5519C10.6445 10.4833 8.45166 13.0279 6.93885 15.9751C5.42605 18.9222 4.63679 22.1873 4.63637 25.5ZM25.5 46.3637C20.7105 46.3709 16.0656 44.7232 12.3513 41.6995C13.8463 39.5592 15.8363 37.8117 18.1518 36.6057C20.4674 35.3997 23.0399 34.7709 25.6507 34.7728C28.2289 34.7707 30.7704 35.3838 33.0641 36.5611C35.3578 37.7383 37.3375 39.4459 38.8388 41.5419C35.0957 44.6638 30.3742 46.3705 25.5 46.3637Z" fill="#FCFDFF"/>
</svg>
