<svg width="53" height="53" viewBox="0 0 53 53" fill="none" xmlns="http://www.w3.org/2000/svg">
<path d="M20.9224 3.63338L10.499 12.7695L7.57143 9.13612L18.02 0L20.9224 3.63338ZM53 9.16245L50.0724 12.7958L39.6238 3.63338L42.5514 0L53 9.16245ZM30.2857 5.60805C35.6406 5.60805 40.7761 7.82719 44.5625 11.7773C48.349 15.7274 50.4762 21.0849 50.4762 26.6711C50.4762 32.2574 48.349 37.6149 44.5625 41.565C40.7761 45.5151 35.6406 47.7342 30.2857 47.7342C24.9309 47.7342 19.7953 45.5151 16.0089 41.565C12.2224 37.6149 10.0952 32.2574 10.0952 26.6711C10.0952 21.0849 12.2224 15.7274 16.0089 11.7773C19.7953 7.82719 24.9309 5.60805 30.2857 5.60805ZM30.2857 10.8738C26.2696 10.8738 22.4179 12.5382 19.5781 15.5007C16.7383 18.4633 15.1429 22.4814 15.1429 26.6711C15.1429 30.8608 16.7383 34.879 19.5781 37.8415C22.4179 40.8041 26.2696 42.4685 30.2857 42.4685C34.3018 42.4685 38.1535 40.8041 40.9933 37.8415C43.8332 34.879 45.4286 30.8608 45.4286 26.6711C45.4286 22.4814 43.8332 18.4633 40.9933 15.5007C38.1535 12.5382 34.3018 10.8738 30.2857 10.8738ZM27.7619 14.8232H31.5476V26.7501L39.6743 30.6205L38.1095 34.2012L27.7619 29.304V14.8232ZM0 31.9369C0 25.3547 2.8519 19.5623 7.34429 15.692C5.82838 19.136 5.04489 22.8814 5.04762 26.6711L5.19905 29.6463L5.04762 31.9369C5.04762 37.9399 8.25286 43.153 12.9724 45.8386C16.2533 49.0507 20.3671 51.3939 24.9605 52.4208C23.421 52.7894 21.831 53 20.1905 53C14.8356 53 9.7001 50.7809 5.91365 46.8308C2.12721 42.8807 0 37.5232 0 31.9369Z" fill="#FCFDFF"/>
</svg>
