<svg width="40" height="47" viewBox="0.125 0.3125 39.75 46.375" fill="none" xmlns="http://www.w3.org/2000/svg">
<path d="M13.3333 4.44444V0H26.6667V4.44444H13.3333ZM17.7778 28.8889H22.2222V15.5556H17.7778V28.8889ZM20 46.6667C17.2593 46.6667 14.6756 46.1385 12.2489 45.0822C9.82223 44.0259 7.70223 42.5911 5.88889 40.7778C4.07408 38.963 2.63852 36.8422 1.58222 34.4156C0.525929 31.9889 -0.00147837 29.4059 3.11236e-06 26.6667C3.11236e-06 23.9259 0.528151 21.3422 1.58445 18.9156C2.64074 16.4889 4.07556 14.3689 5.88889 12.5556C7.70371 10.7407 9.82445 9.30518 12.2511 8.24889C14.6778 7.19259 17.2607 6.66518 20 6.66667C22.2963 6.66667 24.5 7.03704 26.6111 7.77778C28.7222 8.51852 30.7037 9.59259 32.5556 11L35.6667 7.88889L38.7778 11L35.6667 14.1111C37.0741 15.963 38.1482 17.9444 38.8889 20.0556C39.6296 22.1667 40 24.3704 40 26.6667C40 29.4074 39.4719 31.9911 38.4156 34.4178C37.3593 36.8444 35.9244 38.9644 34.1111 40.7778C32.2963 42.5926 30.1756 44.0281 27.7489 45.0844C25.3222 46.1407 22.7393 46.6681 20 46.6667Z" fill="#FCFDFF"/>
</svg>
